{"title":"The.Wronged.Man.2010.SWESUB.DVDRip.XviD.AC3.(5.1)-Zen_Bud.avi","uid":5738301,"size":1469735408,"categoryP":"video","categoryS":"movies","magnet":"?xt=urn:btih:c84a5b32585579a9194e272b98453e8769f3c07b&amp;dn=The.Wronged.Man.2010.SWESUB.DVDRip.XviD.AC3.%285.1%29-Zen_Bud.avi&amp;tr=udp%3A%2F%2Ftracker.openbittorrent.com%3A80&amp;tr=udp%3A%2F%2Fopen.demonii.com%3A1337&amp;tr=udp%3A%2F%2Ftracker.coppersurfer.tk%3A6969&amp;tr=udp%3A%2F%2Fexodus.desync.com%3A6969","seeders":0,"leechers":1,"uploader":"Zen_Bud","files":-1,"time":1280912501,"description":"General\nComplete name                    : The.Wronged.Man.2010.avi\nFormat                           : AVI\nFile size                        : 1.37 GiB\nDuration                         : 1h 25mn\nOverall bit rate                 : 2 294 Kbps\n\nVideo\nID                               : 0\nFormat                           : MPEG-4 Visual\nCodec ID/Hint                    : XviD\nDuration                         : 1h 25mn\nBit rate                         : 1 899 Kbps\nWidth                            : 720 pixels\nHeight                           : 572 pixels\nDisplay aspect ratio             : 16:9\nStream size                      : 1.13 GiB (83%)\nWriting library                  : XviD 1.1.2 (UTC 2006-11-01)\n\nAudio\n\nFormat                           : AC-3\nDuration                         : 1h 25mn\nBit rate                         : 384 Kbps\nChannel(s)                       : 6 channels\nChannel positions                : Front: L C R, Side: L R, LFE\nSampling rate                    : 48.0 KHz\nStream size                      : 235 MiB (17%)\n\n\n","torrent":{"xt":"urn:btih:c84a5b32585579a9194e272b98453e8769f3c07b","amp;dn":"The.Wronged.Man.2010.SWESUB.DVDRip.XviD.AC3.%285.1%29-Zen_Bud.avi","amp;tr":["udp%3A%2F%2Ftracker.openbittorrent.com%3A80","udp%3A%2F%2Fopen.demonii.com%3A1337","udp%3A%2F%2Ftracker.coppersurfer.tk%3A6969","udp%3A%2F%2Fexodus.desync.com%3A6969"],"infoHash":"c84a5b32585579a9194e272b98453e8769f3c07b","infoHashBuffer":{"type":"Buffer","data":[200,74,91,50,88,85,121,169,25,78,39,43,152,69,62,135,105,243,192,123]},"announce":[],"urlList":[]}}